<mxfile host="Electron" modified="2020-12-26T23:00:26.330Z" agent="5.0 (X11; Linux x86_64) AppleWebKit/537.36 (KHTML, like Gecko) draw.io/13.9.9 Chrome/85.0.4183.121 Electron/10.1.5 Safari/537.36" etag="6MsWoDIg70NuBQQVyMPX" compressed="false" version="13.9.9" type="device">
  <diagram id="uBbau7ussQgPSl02ERnx" name="Page-1">
    <mxGraphModel dx="2053" dy="1806" grid="1" gridSize="10" guides="1" tooltips="1" connect="1" arrows="1" fold="1" page="1" pageScale="1" pageWidth="850" pageHeight="1100" math="0" shadow="0">
      <root>
        <mxCell id="0" />
        <mxCell id="1" parent="0" />
        <mxCell id="qXloWMecU9iQvMMXv3q1-344" style="edgeStyle=orthogonalEdgeStyle;rounded=0;orthogonalLoop=1;jettySize=auto;html=1;exitX=0.5;exitY=1;exitDx=0;exitDy=0;entryX=0.5;entryY=0;entryDx=0;entryDy=0;endSize=6;fontSize=12;" parent="1" source="325" target="qXloWMecU9iQvMMXv3q1-339" edge="1">
          <mxGeometry relative="1" as="geometry">
            <Array as="points">
              <mxPoint x="60" y="-70" />
              <mxPoint x="-20" y="-70" />
              <mxPoint x="-20" y="-190" />
              <mxPoint x="-100" y="-190" />
            </Array>
          </mxGeometry>
        </mxCell>
        <mxCell id="325" value="начало&lt;br&gt;list_process()" style="rounded=1;whiteSpace=wrap;html=1;arcSize=50;" parent="1" vertex="1">
          <mxGeometry y="-120" width="120" height="30" as="geometry" />
        </mxCell>
        <mxCell id="326" value="конец" style="rounded=1;whiteSpace=wrap;html=1;arcSize=50;" parent="1" vertex="1">
          <mxGeometry y="990" width="120" height="30" as="geometry" />
        </mxCell>
        <mxCell id="324" value="TAIL-&gt;NEXT = NULL" style="rounded=0;whiteSpace=wrap;html=1;" parent="1" vertex="1">
          <mxGeometry y="910" width="120" height="60" as="geometry" />
        </mxCell>
        <mxCell id="327" style="edgeStyle=orthogonalEdgeStyle;rounded=0;orthogonalLoop=1;jettySize=auto;html=1;exitX=0.5;exitY=1;exitDx=0;exitDy=0;entryX=0.5;entryY=0;entryDx=0;entryDy=0;" parent="1" source="324" target="326" edge="1">
          <mxGeometry relative="1" as="geometry" />
        </mxCell>
        <mxCell id="322" value="Цикл E&lt;br&gt;Пока cur != NULL" style="strokeWidth=1;html=1;shape=mxgraph.flowchart.loop_limit;whiteSpace=wrap;flipV=0;" parent="1" vertex="1">
          <mxGeometry y="130" width="120" height="60" as="geometry" />
        </mxCell>
        <mxCell id="323" value="Цикл E" style="strokeWidth=1;html=1;shape=mxgraph.flowchart.loop_limit;whiteSpace=wrap;flipV=1;" parent="1" vertex="1">
          <mxGeometry y="830" width="120" height="60" as="geometry" />
        </mxCell>
        <mxCell id="321" value="cur = next" style="rounded=0;whiteSpace=wrap;html=1;" parent="1" vertex="1">
          <mxGeometry y="750" width="120" height="60" as="geometry" />
        </mxCell>
        <mxCell id="328" style="edgeStyle=orthogonalEdgeStyle;rounded=0;orthogonalLoop=1;jettySize=auto;html=1;exitX=0.5;exitY=1;exitDx=0;exitDy=0;entryX=0.5;entryY=0;entryDx=0;entryDy=0;" parent="1" source="321" target="323" edge="1">
          <mxGeometry relative="1" as="geometry" />
        </mxCell>
        <mxCell id="qXloWMecU9iQvMMXv3q1-355" style="edgeStyle=orthogonalEdgeStyle;rounded=0;orthogonalLoop=1;jettySize=auto;html=1;exitX=0.5;exitY=1;exitDx=0;exitDy=0;entryX=0.5;entryY=0;entryDx=0;entryDy=0;endSize=6;fontSize=10;" parent="1" source="320" target="qXloWMecU9iQvMMXv3q1-353" edge="1">
          <mxGeometry relative="1" as="geometry" />
        </mxCell>
        <mxCell id="320" value="next" style="rhombus;whiteSpace=wrap;html=1;rounded=0;" parent="1" vertex="1">
          <mxGeometry y="470" width="120" height="60" as="geometry" />
        </mxCell>
        <mxCell id="319" value="i = 0" style="rounded=0;whiteSpace=wrap;html=1;" parent="1" vertex="1">
          <mxGeometry y="650" width="120" height="60" as="geometry" />
        </mxCell>
        <mxCell id="329" style="edgeStyle=orthogonalEdgeStyle;rounded=0;orthogonalLoop=1;jettySize=auto;html=1;exitX=0.5;exitY=1;exitDx=0;exitDy=0;entryX=0.5;entryY=0;entryDx=0;entryDy=0;" parent="1" source="319" target="321" edge="1">
          <mxGeometry relative="1" as="geometry" />
        </mxCell>
        <mxCell id="331" style="edgeStyle=orthogonalEdgeStyle;rounded=0;orthogonalLoop=1;jettySize=auto;html=1;exitX=1;exitY=0.5;exitDx=0;exitDy=0;" parent="1" source="320" edge="1">
          <mxGeometry relative="1" as="geometry">
            <mxPoint x="60" y="730" as="targetPoint" />
            <Array as="points">
              <mxPoint x="290" y="500" />
              <mxPoint x="290" y="730" />
            </Array>
          </mxGeometry>
        </mxCell>
        <mxCell id="318" value="ListElement * next = cur-&gt;NEXT" style="rounded=0;whiteSpace=wrap;html=1;" parent="1" vertex="1">
          <mxGeometry y="390" width="120" height="60" as="geometry" />
        </mxCell>
        <mxCell id="332" style="edgeStyle=orthogonalEdgeStyle;rounded=0;orthogonalLoop=1;jettySize=auto;html=1;exitX=0.5;exitY=1;exitDx=0;exitDy=0;entryX=0.5;entryY=0;entryDx=0;entryDy=0;" parent="1" source="318" target="320" edge="1">
          <mxGeometry relative="1" as="geometry" />
        </mxCell>
        <mxCell id="317" value="i &lt; 5" style="rhombus;whiteSpace=wrap;html=1;rounded=0;" parent="1" vertex="1">
          <mxGeometry y="210" width="120" height="60" as="geometry" />
        </mxCell>
        <mxCell id="316" value="connect(TAIL, cur);&lt;br&gt;TAIL = cur;&lt;br&gt;list_len++;&lt;br&gt;i++" style="rounded=0;whiteSpace=wrap;html=1;" parent="1" vertex="1">
          <mxGeometry y="290" width="120" height="60" as="geometry" />
        </mxCell>
        <mxCell id="333" style="edgeStyle=orthogonalEdgeStyle;rounded=0;orthogonalLoop=1;jettySize=auto;html=1;exitX=0.5;exitY=1;exitDx=0;exitDy=0;entryX=0.5;entryY=0;entryDx=0;entryDy=0;" parent="1" source="316" target="318" edge="1">
          <mxGeometry relative="1" as="geometry" />
        </mxCell>
        <mxCell id="334" style="edgeStyle=orthogonalEdgeStyle;rounded=0;orthogonalLoop=1;jettySize=auto;html=1;exitX=0.5;exitY=1;exitDx=0;exitDy=0;entryX=0.5;entryY=0;entryDx=0;entryDy=0;" parent="1" source="317" target="316" edge="1">
          <mxGeometry relative="1" as="geometry" />
        </mxCell>
        <mxCell id="335" style="edgeStyle=orthogonalEdgeStyle;rounded=0;orthogonalLoop=1;jettySize=auto;html=1;exitX=1;exitY=0.5;exitDx=0;exitDy=0;" parent="1" source="317" edge="1">
          <mxGeometry relative="1" as="geometry">
            <mxPoint x="60" y="370" as="targetPoint" />
            <Array as="points">
              <mxPoint x="160" y="240" />
              <mxPoint x="160" y="370" />
            </Array>
          </mxGeometry>
        </mxCell>
        <mxCell id="336" style="edgeStyle=orthogonalEdgeStyle;rounded=0;orthogonalLoop=1;jettySize=auto;html=1;exitX=0.5;exitY=1;exitDx=0;exitDy=0;entryX=0.5;entryY=0;entryDx=0;entryDy=0;" parent="1" source="322" target="317" edge="1">
          <mxGeometry relative="1" as="geometry" />
        </mxCell>
        <mxCell id="337" style="edgeStyle=orthogonalEdgeStyle;rounded=0;orthogonalLoop=1;jettySize=auto;html=1;exitX=0.5;exitY=1;exitDx=0;exitDy=0;entryX=0.5;entryY=0;entryDx=0;entryDy=0;" parent="1" source="323" target="324" edge="1">
          <mxGeometry relative="1" as="geometry" />
        </mxCell>
        <mxCell id="315" value="char i = 1;&lt;br&gt;ListElement * cur = HEAD-&amp;gt;NEXT" style="rounded=0;whiteSpace=wrap;html=1;" parent="1" vertex="1">
          <mxGeometry y="50" width="120" height="60" as="geometry" />
        </mxCell>
        <mxCell id="338" style="edgeStyle=orthogonalEdgeStyle;rounded=0;orthogonalLoop=1;jettySize=auto;html=1;exitX=0.5;exitY=1;exitDx=0;exitDy=0;entryX=0.5;entryY=0;entryDx=0;entryDy=0;" parent="1" source="315" target="322" edge="1">
          <mxGeometry relative="1" as="geometry" />
        </mxCell>
        <mxCell id="qXloWMecU9iQvMMXv3q1-350" style="edgeStyle=orthogonalEdgeStyle;rounded=0;orthogonalLoop=1;jettySize=auto;html=1;exitX=0.5;exitY=1;exitDx=0;exitDy=0;entryX=0.5;entryY=0;entryDx=0;entryDy=0;endSize=6;fontSize=12;" parent="1" source="qXloWMecU9iQvMMXv3q1-339" target="qXloWMecU9iQvMMXv3q1-341" edge="1">
          <mxGeometry relative="1" as="geometry" />
        </mxCell>
        <mxCell id="qXloWMecU9iQvMMXv3q1-339" value="&lt;font style=&quot;font-size: 10px&quot;&gt;list_copy_to_search_layer();&lt;br&gt;link_layer = SEARCH;&lt;/font&gt;" style="shape=process;whiteSpace=wrap;html=1;backgroundOutline=1;fontFamily=Helvetica;fontSize=12;fontColor=#000000;align=center;strokeColor=#000000;fillColor=#ffffff;" parent="1" vertex="1">
          <mxGeometry x="-190" y="-170" width="120" height="60" as="geometry" />
        </mxCell>
        <mxCell id="qXloWMecU9iQvMMXv3q1-347" style="edgeStyle=orthogonalEdgeStyle;rounded=0;orthogonalLoop=1;jettySize=auto;html=1;exitX=0.5;exitY=1;exitDx=0;exitDy=0;entryX=0.5;entryY=0;entryDx=0;entryDy=0;endSize=6;fontSize=12;" parent="1" source="qXloWMecU9iQvMMXv3q1-341" target="qXloWMecU9iQvMMXv3q1-342" edge="1">
          <mxGeometry relative="1" as="geometry" />
        </mxCell>
        <mxCell id="qXloWMecU9iQvMMXv3q1-341" value="&lt;span&gt;Cut cut =&lt;br&gt;recursion&lt;br&gt;(HEAD, list_len);&lt;/span&gt;" style="shape=process;whiteSpace=wrap;html=1;backgroundOutline=1;fontSize=12;" parent="1" vertex="1">
          <mxGeometry x="-190" y="-90" width="120" height="60" as="geometry" />
        </mxCell>
        <mxCell id="qXloWMecU9iQvMMXv3q1-351" style="edgeStyle=orthogonalEdgeStyle;rounded=0;orthogonalLoop=1;jettySize=auto;html=1;exitX=0.5;exitY=1;exitDx=0;exitDy=0;entryX=0.5;entryY=0;entryDx=0;entryDy=0;endSize=6;fontSize=12;" parent="1" source="qXloWMecU9iQvMMXv3q1-342" target="qXloWMecU9iQvMMXv3q1-349" edge="1">
          <mxGeometry relative="1" as="geometry">
            <Array as="points">
              <mxPoint x="-100" y="70" />
              <mxPoint x="-20" y="70" />
              <mxPoint x="-20" y="-50" />
              <mxPoint x="60" y="-50" />
            </Array>
          </mxGeometry>
        </mxCell>
        <mxCell id="qXloWMecU9iQvMMXv3q1-342" value="&lt;font style=&quot;font-size: 10px&quot;&gt;&lt;span&gt;HEAD = TAIL = cut.first;&lt;/span&gt;&lt;br&gt;&lt;span&gt;cut.last-&amp;gt;NEXT = NULL;&lt;/span&gt;&lt;br&gt;&lt;span&gt;HEAD-&amp;gt;PREV = NULL;&lt;br&gt;&lt;/span&gt;&lt;span style=&quot;font-size: 12px&quot;&gt;list_len = 1;&lt;/span&gt;&lt;span&gt;&lt;br&gt;&lt;/span&gt;&lt;/font&gt;" style="rounded=0;whiteSpace=wrap;html=1;fontSize=12;" parent="1" vertex="1">
          <mxGeometry x="-190" y="-10" width="120" height="60" as="geometry" />
        </mxCell>
        <mxCell id="qXloWMecU9iQvMMXv3q1-352" style="edgeStyle=orthogonalEdgeStyle;rounded=0;orthogonalLoop=1;jettySize=auto;html=1;exitX=0.5;exitY=1;exitDx=0;exitDy=0;entryX=0.5;entryY=0;entryDx=0;entryDy=0;endSize=6;fontSize=12;" parent="1" source="qXloWMecU9iQvMMXv3q1-349" target="315" edge="1">
          <mxGeometry relative="1" as="geometry" />
        </mxCell>
        <mxCell id="qXloWMecU9iQvMMXv3q1-349" value="field_to_compare_by_offset = offsetof(ListElement, data);&lt;br style=&quot;font-size: 10px;&quot;&gt;list_element_compare_func = list_process_cmp;" style="rounded=0;whiteSpace=wrap;html=1;fontSize=10;" parent="1" vertex="1">
          <mxGeometry y="-30" width="120" height="60" as="geometry" />
        </mxCell>
        <mxCell id="qXloWMecU9iQvMMXv3q1-356" style="edgeStyle=orthogonalEdgeStyle;rounded=0;orthogonalLoop=1;jettySize=auto;html=1;exitX=0.5;exitY=1;exitDx=0;exitDy=0;entryX=0.5;entryY=0;entryDx=0;entryDy=0;endSize=6;fontSize=10;" parent="1" source="qXloWMecU9iQvMMXv3q1-353" target="319" edge="1">
          <mxGeometry relative="1" as="geometry" />
        </mxCell>
        <mxCell id="qXloWMecU9iQvMMXv3q1-357" style="edgeStyle=orthogonalEdgeStyle;rounded=0;orthogonalLoop=1;jettySize=auto;html=1;exitX=1;exitY=0.5;exitDx=0;exitDy=0;entryX=0;entryY=0.5;entryDx=0;entryDy=0;endSize=6;fontSize=10;" parent="1" source="qXloWMecU9iQvMMXv3q1-353" target="qXloWMecU9iQvMMXv3q1-354" edge="1">
          <mxGeometry relative="1" as="geometry" />
        </mxCell>
        <mxCell id="qXloWMecU9iQvMMXv3q1-353" value="strcmp&lt;br&gt;(next-&amp;gt;data.group_name, cur-&amp;gt;data.group_name)" style="rhombus;whiteSpace=wrap;html=1;rounded=0;fontSize=10;" parent="1" vertex="1">
          <mxGeometry y="550" width="120" height="60" as="geometry" />
        </mxCell>
        <mxCell id="qXloWMecU9iQvMMXv3q1-358" style="edgeStyle=orthogonalEdgeStyle;rounded=0;orthogonalLoop=1;jettySize=auto;html=1;exitX=0.5;exitY=1;exitDx=0;exitDy=0;endSize=6;fontSize=10;" parent="1" source="qXloWMecU9iQvMMXv3q1-354" edge="1">
          <mxGeometry relative="1" as="geometry">
            <mxPoint x="60" y="630" as="targetPoint" />
            <Array as="points">
              <mxPoint x="200" y="630" />
            </Array>
          </mxGeometry>
        </mxCell>
        <mxCell id="qXloWMecU9iQvMMXv3q1-359" style="edgeStyle=orthogonalEdgeStyle;rounded=0;orthogonalLoop=1;jettySize=auto;html=1;endSize=6;fontSize=10;" parent="1" source="qXloWMecU9iQvMMXv3q1-354" edge="1">
          <mxGeometry relative="1" as="geometry">
            <mxPoint x="290" y="580" as="targetPoint" />
          </mxGeometry>
        </mxCell>
        <mxCell id="qXloWMecU9iQvMMXv3q1-354" value="&lt;font style=&quot;font-size: 11px&quot;&gt;next-&amp;gt;data.gender != cur-&amp;gt;data.gender&lt;/font&gt;" style="rhombus;whiteSpace=wrap;html=1;rounded=0;" parent="1" vertex="1">
          <mxGeometry x="140" y="550" width="120" height="60" as="geometry" />
        </mxCell>
        <mxCell id="M_NYjB1fpqTVngTLy-qD-338" value="1" style="whiteSpace=wrap;html=1;aspect=fixed;" vertex="1" parent="1">
          <mxGeometry x="-68" y="-170" width="20" height="20" as="geometry" />
        </mxCell>
        <mxCell id="M_NYjB1fpqTVngTLy-qD-339" value="2" style="whiteSpace=wrap;html=1;aspect=fixed;" vertex="1" parent="1">
          <mxGeometry x="-68" y="-90" width="20" height="20" as="geometry" />
        </mxCell>
        <mxCell id="M_NYjB1fpqTVngTLy-qD-340" value="3" style="whiteSpace=wrap;html=1;aspect=fixed;" vertex="1" parent="1">
          <mxGeometry x="-68" y="-10" width="20" height="20" as="geometry" />
        </mxCell>
        <mxCell id="M_NYjB1fpqTVngTLy-qD-341" value="4" style="whiteSpace=wrap;html=1;aspect=fixed;" vertex="1" parent="1">
          <mxGeometry x="122" y="-30" width="20" height="20" as="geometry" />
        </mxCell>
        <mxCell id="M_NYjB1fpqTVngTLy-qD-342" value="5" style="whiteSpace=wrap;html=1;aspect=fixed;" vertex="1" parent="1">
          <mxGeometry x="122" y="50" width="20" height="20" as="geometry" />
        </mxCell>
        <mxCell id="M_NYjB1fpqTVngTLy-qD-343" value="6" style="whiteSpace=wrap;html=1;aspect=fixed;" vertex="1" parent="1">
          <mxGeometry x="122" y="130" width="20" height="20" as="geometry" />
        </mxCell>
        <mxCell id="M_NYjB1fpqTVngTLy-qD-344" value="7" style="whiteSpace=wrap;html=1;aspect=fixed;" vertex="1" parent="1">
          <mxGeometry x="122" y="210" width="20" height="20" as="geometry" />
        </mxCell>
        <mxCell id="M_NYjB1fpqTVngTLy-qD-346" value="8" style="whiteSpace=wrap;html=1;aspect=fixed;" vertex="1" parent="1">
          <mxGeometry x="122" y="290" width="20" height="20" as="geometry" />
        </mxCell>
        <mxCell id="M_NYjB1fpqTVngTLy-qD-347" value="9" style="whiteSpace=wrap;html=1;aspect=fixed;" vertex="1" parent="1">
          <mxGeometry x="122" y="390" width="20" height="20" as="geometry" />
        </mxCell>
        <mxCell id="M_NYjB1fpqTVngTLy-qD-348" value="10" style="whiteSpace=wrap;html=1;aspect=fixed;" vertex="1" parent="1">
          <mxGeometry x="122" y="470" width="20" height="20" as="geometry" />
        </mxCell>
        <mxCell id="M_NYjB1fpqTVngTLy-qD-349" value="11" style="whiteSpace=wrap;html=1;aspect=fixed;" vertex="1" parent="1">
          <mxGeometry x="122" y="550" width="20" height="20" as="geometry" />
        </mxCell>
        <mxCell id="M_NYjB1fpqTVngTLy-qD-350" value="12" style="whiteSpace=wrap;html=1;aspect=fixed;" vertex="1" parent="1">
          <mxGeometry x="260" y="550" width="20" height="20" as="geometry" />
        </mxCell>
        <mxCell id="M_NYjB1fpqTVngTLy-qD-351" value="13" style="whiteSpace=wrap;html=1;aspect=fixed;" vertex="1" parent="1">
          <mxGeometry x="122" y="650" width="20" height="20" as="geometry" />
        </mxCell>
        <mxCell id="M_NYjB1fpqTVngTLy-qD-352" value="14" style="whiteSpace=wrap;html=1;aspect=fixed;" vertex="1" parent="1">
          <mxGeometry x="122" y="750" width="20" height="20" as="geometry" />
        </mxCell>
        <mxCell id="M_NYjB1fpqTVngTLy-qD-353" value="15" style="whiteSpace=wrap;html=1;aspect=fixed;" vertex="1" parent="1">
          <mxGeometry x="122" y="830" width="20" height="20" as="geometry" />
        </mxCell>
        <mxCell id="M_NYjB1fpqTVngTLy-qD-354" value="16" style="whiteSpace=wrap;html=1;aspect=fixed;" vertex="1" parent="1">
          <mxGeometry x="122" y="910" width="20" height="20" as="geometry" />
        </mxCell>
      </root>
    </mxGraphModel>
  </diagram>
</mxfile>
